<svg width="439" height="26" viewBox="0 0 439 26" fill="none" xmlns="http://www.w3.org/2000/svg">
<g clip-path="url(#clip0_708_1538)">
<path d="M3.45782 25.2821C7.75085 25.1568 12.0439 25.0566 16.3286 24.8812C18.1828 24.806 20.0202 24.6974 21.8661 24.5888C24.2764 24.2955 26.7058 24.1894 29.1325 24.2715C29.4922 24.2401 29.8385 24.1199 30.1403 23.9217C30.442 23.7234 30.6898 23.4533 30.8614 23.1356C31.4102 22.2662 31.7662 21.2893 31.9054 20.2708C32.1059 19.0456 32.1059 17.7959 31.9054 16.5707C31.7718 16.0278 31.6298 15.4933 31.4962 14.9588C31.2403 14.1308 30.7394 13.3998 30.0596 12.8624C27.5775 11.8331 24.9279 11.267 22.2419 11.1919C20.6132 11.1502 18.9929 11.1084 17.3642 11.1084H16.6209C12.236 11.1084 7.85108 11.2921 3.45782 11.4174C3.03495 11.4572 2.6282 11.5998 2.27301 11.8327C1.91782 12.0656 1.62495 12.3818 1.41989 12.7538C0.300691 14.2822 1.27302e-05 16.5206 1.27302e-05 18.3414C-0.0167409 19.7341 0.209367 21.119 0.668188 22.434C1.09415 23.5615 2.00454 25.3238 3.45782 25.2821Z" fill="#21C9D3"/>
<path d="M50.2719 23.4698C55.9013 23.57 61.5223 23.6536 67.1434 23.6369C71.687 23.6369 76.2389 23.5533 80.7742 23.1942C80.9615 23.1765 81.1416 23.1132 81.2989 23.0098C81.4561 22.9064 81.5857 22.7661 81.6762 22.6012C82.1343 21.8488 82.3527 20.9749 82.3026 20.0955C82.3103 19.4818 82.2114 18.8714 82.0103 18.2914C81.8015 17.7569 81.4423 17.072 80.7742 17.0386C76.3224 16.8215 71.8707 16.5876 67.4106 16.4623C61.7061 16.2953 55.9848 16.2117 50.2719 16.1199C50.0486 16.1434 49.8342 16.2201 49.6468 16.3436C49.4593 16.4672 49.3042 16.6339 49.1945 16.8298C48.6548 17.715 48.3957 18.7429 48.4511 19.7781C48.4298 20.5238 48.5401 21.2674 48.7769 21.9748C49.0358 22.5928 49.4868 23.4615 50.2719 23.4698Z" fill="#21C9D3"/>
<path d="M131.99 16.1199C129.351 16.0447 126.72 15.9946 124.089 15.9946C121.95 15.9946 119.812 15.9946 117.674 16.1116C112.546 16.312 107.426 16.7463 102.306 17.1806C102.047 17.2064 101.798 17.2963 101.583 17.4421C101.367 17.5879 101.191 17.7851 101.07 18.0159C100.46 19.0377 100.169 20.2186 100.235 21.4069C100.223 22.2589 100.359 23.1066 100.636 23.9125C100.886 24.5473 101.471 25.7082 102.306 25.6331C107.317 25.2155 112.379 24.8981 117.415 24.5139C122.276 24.1464 127.129 23.6787 131.99 23.4531C132.214 23.4355 132.43 23.362 132.618 23.2395C132.806 23.1169 132.961 22.9492 133.067 22.7516C133.606 21.8686 133.868 20.8447 133.819 19.8116C133.821 19.0782 133.7 18.3497 133.46 17.6567C133.226 16.9885 132.783 16.145 131.99 16.1199Z" fill="#21C9D3"/>
<path d="M198.54 16.8547C199.388 15.4685 199.798 13.8589 199.718 12.236C199.728 11.0826 199.541 9.93585 199.167 8.84498L198.54 7.60886C198.373 7.30276 198.133 7.04226 197.842 6.85009C197.551 6.65792 197.217 6.53991 196.87 6.50637C194.088 5.97182 191.299 5.49575 188.476 5.20342C186.378 4.98641 184.27 4.87769 182.162 4.87769C181.669 4.87769 181.168 4.87769 180.675 4.87769C179.389 4.87769 178.077 4.87769 176.791 4.96956L172.072 5.2953C170.201 5.42893 168.339 5.58762 166.468 5.78808C164.643 5.97018 162.836 6.29977 161.064 6.77364C159.116 7.29202 157.253 8.09106 155.535 9.14566C154.688 9.8125 154.064 10.7215 153.747 11.7515C153.005 13.8688 152.827 16.1427 153.229 18.3498C153.555 20.229 155.05 24.6641 157.832 22.9519C158.798 22.3446 159.819 21.8274 160.88 21.4067C165.056 20.2207 169.5 20.1037 173.801 19.778C176.424 19.5776 179.046 19.4189 181.669 19.2602C184.032 19.1098 186.396 18.9595 188.751 18.734C191.458 18.4751 194.155 18.1243 196.87 17.8988C197.212 17.8728 197.543 17.7642 197.833 17.5824C198.124 17.4006 198.367 17.1509 198.54 16.8547Z" fill="#21C9D3"/>
<path d="M211.937 17.1804C217.388 16.7907 222.839 16.4399 228.291 16.1281C230.554 15.9944 232.818 15.8357 235.073 15.6687C237.328 15.5017 239.792 15.2511 242.155 15.2761C242.479 15.2477 242.791 15.1398 243.064 14.9621C243.336 14.7844 243.561 14.5423 243.717 14.2572C244.51 12.9614 244.891 11.4559 244.811 9.93909C244.82 8.87304 244.645 7.81346 244.293 6.80701C244.11 6.42281 243.909 6.03861 243.717 5.65441C243.56 5.36915 243.335 5.12653 243.063 4.94752C242.791 4.76852 242.48 4.65853 242.155 4.62708C239.844 4.04186 237.485 3.66726 235.106 3.50789C232.943 3.28238 230.746 3.27403 228.575 3.25732H224.833H224.741C223.831 3.25732 222.895 3.35755 221.985 3.39931C218.644 3.57471 215.303 3.76681 211.962 4.00067C211.552 4.03285 211.156 4.16551 210.809 4.38692C210.463 4.60833 210.176 4.91168 209.974 5.2702C209.004 6.86914 208.535 8.7225 208.63 10.5906C208.614 11.9149 208.829 13.2319 209.264 14.4827C209.665 15.4933 210.542 17.2807 211.937 17.1804Z" fill="#21C9D3"/>
<path d="M292.603 6.10542C288.201 5.76298 283.808 5.41219 279.389 5.38713L263.746 5.32031C263.43 5.34998 263.125 5.45592 262.859 5.62903C262.593 5.80215 262.373 6.03727 262.217 6.31422C261.457 7.56975 261.09 9.02439 261.165 10.4903C261.155 11.5278 261.325 12.5591 261.666 13.5389C261.992 14.3741 262.627 15.6353 263.746 15.652C268.924 15.6854 274.108 15.7132 279.298 15.7355C283.741 15.7355 288.176 15.4348 292.603 15.1258C292.875 15.106 293.139 15.0194 293.371 14.8738C293.602 14.7282 293.795 14.5279 293.931 14.2906C294.597 13.1999 294.92 11.934 294.858 10.6574C294.864 9.75383 294.718 8.85571 294.423 8.00137C294.106 7.13274 293.597 6.18059 292.603 6.10542Z" fill="#21C9D3"/>
<path d="M359.404 10.1981C359.404 8.52769 359.003 5.39562 356.898 5.12835C351.055 4.36437 345.175 3.91271 339.283 3.77529C332.025 3.62495 324.775 3.54978 317.517 3.47461C317.111 3.51163 316.719 3.6474 316.377 3.87011C316.035 4.09282 315.753 4.39573 315.554 4.7525C314.485 6.21413 314.201 8.36065 314.201 10.1063C314.185 11.4396 314.402 12.7655 314.845 14.0234C315.271 15.1343 316.081 16.7212 317.517 16.7379C324.775 16.8214 332.025 16.8465 339.283 16.7379C345.183 16.6605 351.069 16.1637 356.898 15.2512C358.994 14.9505 359.404 11.8936 359.404 10.1981Z" fill="#21C9D3"/>
<path d="M380.359 17.4562C386.565 16.7462 392.779 16.1449 399.018 15.6938C401.332 15.5268 403.653 15.3848 405.967 15.1844C408.765 14.9421 411.58 14.6081 414.386 14.5747C414.813 14.5458 415.227 14.4127 415.591 14.187C415.955 13.9613 416.258 13.6499 416.474 13.2801C417.602 11.6931 417.944 9.43805 417.944 7.60057C417.963 6.19616 417.734 4.79943 417.268 3.47458L416.516 1.96283C416.309 1.58585 416.012 1.26538 415.653 1.0295C415.293 0.793608 414.881 0.649494 414.453 0.609773C412.104 0.132195 409.708 -0.0723982 407.312 6.24759e-05H406.176C403.904 6.24759e-05 401.607 0.242276 399.335 0.417673C393.013 0.910452 386.715 1.55357 380.426 2.29692C379.961 2.33663 379.513 2.49091 379.123 2.74598C378.732 3.00104 378.411 3.34894 378.188 3.75855C376.96 5.42899 376.634 7.88454 376.634 9.88072C376.616 11.4038 376.862 12.9185 377.361 14.3575C377.745 15.4516 378.797 17.6399 380.359 17.4562Z" fill="#21C9D3"/>
<path d="M436.503 2.59757C433.423 2.27589 430.328 2.10863 427.232 2.09644C426.897 2.12915 426.576 2.24282 426.295 2.42762C426.014 2.61243 425.782 2.86282 425.62 3.15717C424.814 4.48229 424.425 6.01833 424.501 7.56713C424.491 8.6639 424.669 9.75423 425.027 10.7911C425.369 11.6848 426.062 13.0378 427.232 13.0295C430.339 13.0295 433.412 12.8457 436.503 12.5784C436.811 12.5512 437.108 12.4486 437.367 12.2796C437.626 12.1107 437.84 11.8806 437.989 11.6096C438.731 10.4026 439.09 8.9988 439.017 7.58383C439 5.98856 438.599 2.83143 436.503 2.59757Z" fill="#21C9D3"/>
</g>
<defs>
<clipPath id="clip0_708_1538">
<rect width="439" height="25.5911" fill="white"/>
</clipPath>
</defs>
</svg>
