<svg width="409" height="33" viewBox="0 0 409 33" fill="none" xmlns="http://www.w3.org/2000/svg">
<g clip-path="url(#clip0_708_1465)">
<path d="M391.64 4.6701C390.17 4.7901 388.7 4.8801 387.24 5.0301L381.17 5.6501C377.798 5.98535 374.455 6.57029 371.17 7.4001C367.675 8.29031 364.298 9.59278 361.11 11.2801C360.47 11.6101 359.85 11.9701 359.19 12.2801L357.07 13.2801C356.07 13.6801 355.07 14.0601 354.07 14.3801C352.872 14.7474 351.649 15.0248 350.41 15.2101C349.337 15.3221 348.259 15.3788 347.18 15.3801C346.157 15.3785 345.135 15.3117 344.12 15.1801C342.73 14.9542 341.354 14.647 340 14.2601C338.579 13.8291 337.183 13.3183 335.82 12.7301C333.475 11.6735 331.201 10.4677 329.01 9.1201C328.01 8.5001 326.95 7.8701 325.94 7.2101C324.72 6.4101 323.51 5.6101 322.25 4.8701C321.29 4.29449 320.287 3.79303 319.25 3.3701C318.578 3.11499 317.89 2.90453 317.19 2.7401C316.478 2.59878 315.755 2.5218 315.03 2.5101C314.597 2.51489 314.166 2.55503 313.74 2.6301C313.121 2.72497 312.509 2.86535 311.91 3.0501C310.969 3.38055 310.062 3.79907 309.2 4.3001L303.91 7.1201C301.67 8.3101 299.41 9.4701 297.1 10.4801C295.69 11.0501 294.26 11.5501 292.8 11.9901C290.876 12.5325 288.919 12.9467 286.94 13.2301C285.043 13.4735 283.133 13.607 281.22 13.6301C279.044 13.6159 276.872 13.4454 274.72 13.1201C272.01 12.7301 269.32 12.1901 266.66 11.5401C264.192 10.9633 261.771 10.1977 259.42 9.2501C257.082 8.23504 254.795 7.10363 252.57 5.8601C250.054 4.43788 247.429 3.21739 244.72 2.2101C243.632 1.84078 242.519 1.55003 241.39 1.3401C240.073 1.07998 238.732 0.962632 237.39 0.990099C234.706 1.11879 232.086 1.84658 229.72 3.1201C226.839 4.70125 224.111 6.54579 221.57 8.6301C220 9.8001 218.47 11.0501 216.92 12.2601C215.63 13.2601 214.35 14.2601 212.99 15.1501C211.572 16.0807 210.081 16.8935 208.53 17.5801C207.81 17.8701 207.09 18.1301 206.35 18.3701C205.368 18.6594 204.365 18.8733 203.35 19.0101C202.95 19.0101 202.55 19.0701 202.16 19.0801C201.77 19.0901 201.59 19.0801 201.3 19.0801C200.501 18.9064 199.716 18.6758 198.95 18.3901C196.2 17.0172 193.582 15.3937 191.13 13.5401C189.96 12.6001 188.82 11.6301 187.72 10.6001L185.41 8.4601C183.516 6.47703 181.513 4.6008 179.41 2.8401C178.51 2.15658 177.55 1.55738 176.54 1.0501C175.962 0.77728 175.359 0.559648 174.74 0.400099L174.14 0.270098L172.88 0.100098H172.26H172.03C171.652 0.100228 171.274 0.130323 170.9 0.190098C170.171 0.290549 169.452 0.451096 168.75 0.670097C167.378 1.06926 166.032 1.55353 164.72 2.1201C163.63 2.5901 162.56 3.1201 161.49 3.6101C160.73 3.9601 159.96 4.3001 159.23 4.7001L155.72 6.6201C155.14 6.9401 154.55 7.2401 153.99 7.6201L150.86 9.6201C150.08 10.1201 149.28 10.6201 148.51 11.1101L142.72 14.9401C138.621 17.8403 134.27 20.367 129.72 22.4901C128.72 22.9001 127.72 23.2901 126.62 23.6301C125.313 24.0425 123.976 24.3501 122.62 24.5501C122.053 24.6168 121.483 24.6668 120.91 24.7001C120.065 24.7367 119.219 24.7033 118.38 24.6001C117.18 24.4044 116.002 24.0964 114.86 23.6801C113.625 23.0831 112.444 22.3805 111.33 21.5801C109.598 20.1231 107.961 18.5566 106.43 16.8901C105.66 16.0701 104.87 15.2701 104.09 14.4601C103.15 13.4601 102.09 12.5901 101.09 11.7201C99.7767 10.5786 98.246 9.7146 96.59 9.1801C95.9841 9.00831 95.3595 8.91093 94.73 8.8901C94.3277 8.90868 93.9269 8.9521 93.53 9.0201C92.9574 9.15315 92.4008 9.34761 91.87 9.6001C91.3336 9.8596 90.8383 10.1965 90.4 10.6001C89.95 11.0301 89.54 11.4701 89.12 11.9201C88.34 12.7801 87.64 13.7301 86.91 14.6401L85.19 16.8001C84.52 17.6301 83.82 18.4501 83.14 19.2701C81.7832 20.8953 80.2692 22.3825 78.62 23.7101C77.3639 24.6266 76.0247 25.4235 74.62 26.0901C73.3243 26.5727 71.9846 26.9277 70.62 27.1501C68.696 27.3651 66.754 27.3651 64.83 27.1501C61.7834 26.6264 58.8072 25.754 55.96 24.5501C53.3637 23.3887 50.8392 22.073 48.4 20.6101C47.14 19.8501 45.92 19.0301 44.71 18.2101C43.5 17.3901 42.26 16.5501 41.05 15.7001C39.84 14.8501 38.63 13.9701 37.36 13.1801C36.0737 12.3704 34.7377 11.6423 33.36 11.0001C30.8244 9.76167 28.0418 9.11216 25.22 9.1001C24.5489 9.11835 23.8802 9.18856 23.22 9.3101C22.53 9.4301 21.87 9.5701 21.22 9.7501C20.6236 9.9377 20.0392 10.1614 19.47 10.4201C18.84 10.6901 18.22 10.9601 17.61 11.2401C14.8991 12.4628 12.2994 13.9182 9.84001 15.5901C7.62442 17.0638 5.57276 18.7702 3.72 20.6801C2.88 21.5801 2.08 22.4901 1.33 23.4701C0.983695 23.923 0.707286 24.4252 0.510004 24.9601L0.290003 25.6101C0.200003 26.0601 0.120001 26.5201 0.0300007 26.9801C-0.0456613 27.2697 -0.0448938 27.574 0.0322284 27.8632C0.109351 28.1524 0.260191 28.4166 0.470003 28.6301C0.680594 28.8442 0.944733 28.998 1.23493 29.0754C1.52512 29.1528 1.83076 29.1509 2.12 29.0701L3.34001 28.7201C3.91059 28.5386 4.46298 28.3043 4.99 28.0201C5.37778 27.7926 5.65968 27.4208 5.774 26.986C5.88832 26.5512 5.82575 26.0889 5.6 25.7001C5.49243 25.5121 5.34868 25.3472 5.17704 25.215C5.0054 25.0829 4.80928 24.986 4.6 24.9301C6.08512 23.215 7.73281 21.6477 9.52001 20.2501C12.3682 18.1233 15.4559 16.3377 18.72 14.9301C19.46 14.6301 20.2 14.3201 20.95 14.0401C21.8795 13.6894 22.8456 13.4445 23.83 13.3101C24.6919 13.2401 25.5581 13.2401 26.42 13.3101C26.9957 13.4013 27.5664 13.5215 28.13 13.6701C28.9612 13.8994 29.7763 14.1834 30.57 14.5201C32.116 15.249 33.6096 16.0844 35.04 17.0201C36.72 18.0801 38.27 19.3401 39.89 20.5101C41.51 21.6801 43.08 22.7901 44.71 23.8801C46.34 24.9701 48.01 25.9601 49.71 26.8801C53.0111 28.7323 56.5097 30.2082 60.14 31.2801C63.871 32.4344 67.8061 32.7754 71.68 32.2801C73.4765 32.0407 75.2323 31.5597 76.9 30.8501C78.5172 30.1437 80.0501 29.2581 81.47 28.2101C83.0111 27.0638 84.4408 25.7747 85.74 24.3601C86.43 23.6101 87.08 22.8201 87.74 22.0301C88.6733 20.8834 89.5933 19.7234 90.5 18.5501C91.5812 17.0687 92.7534 15.656 94.01 14.3201L94.3 14.1501L94.72 14.0301H94.86C95.1173 14.0848 95.3711 14.1549 95.62 14.2401C96.2366 14.5303 96.8314 14.8645 97.4 15.2401C98.9795 16.5595 100.476 17.9756 101.88 19.4801C103.661 21.4116 105.541 23.2507 107.51 24.9901C108.381 25.7171 109.3 26.3852 110.26 26.9901C111.388 27.6892 112.584 28.2722 113.83 28.7301C114.968 29.1455 116.149 29.4339 117.35 29.5901C118.763 29.7999 120.194 29.8602 121.62 29.7701C122.808 29.668 123.99 29.5011 125.16 29.2701C126.57 28.987 127.955 28.589 129.3 28.0801C131.83 27.156 134.281 26.029 136.63 24.7101C140.08 22.8201 143.33 20.5901 146.63 18.3901C148.19 17.3901 149.73 16.2501 151.31 15.2401L156.72 11.7401C156.93 11.6001 157.15 11.4901 157.37 11.3701L159.23 10.3701L162.07 8.8001C162.26 8.6901 162.46 8.6101 162.65 8.5201L164.65 7.5801C165.77 7.0501 166.88 6.5801 168.01 6.0401C169.145 5.58617 170.311 5.2152 171.5 4.9301C171.743 4.91528 171.987 4.91528 172.23 4.9301H172.84C173.333 5.03877 173.82 5.17228 174.3 5.3301C175.142 5.7564 175.95 6.24439 176.72 6.7901C179 8.7001 181.01 10.9201 183.19 12.9501C184.55 14.2201 185.91 15.4701 187.36 16.6501C188.81 17.8301 190.04 18.6501 191.44 19.6501C192.84 20.6501 194.51 21.4801 196.09 22.3201C197.53 23.0882 199.1 23.5832 200.72 23.7801C201.434 23.8583 202.153 23.8817 202.87 23.8501C203.798 23.7861 204.72 23.6557 205.63 23.4601C207.167 23.1493 208.666 22.6732 210.1 22.0401C211.735 21.3503 213.31 20.5275 214.81 19.5801C216.867 18.2124 218.84 16.723 220.72 15.1201L224.13 12.3901L226.85 10.3201C228.774 8.81536 230.857 7.52443 233.06 6.4701C234.153 6.06525 235.281 5.76393 236.43 5.5701C236.99 5.5101 237.54 5.4801 238.1 5.4701C238.598 5.46823 239.096 5.50165 239.59 5.5701C241.347 5.88249 243.067 6.37854 244.72 7.0501C246.167 7.68343 247.587 8.3501 248.98 9.0501C249.85 9.5101 250.7 10.0501 251.56 10.4801C252.42 10.9101 253.26 11.3701 254.13 11.7901C255.78 12.6101 257.47 13.3701 259.18 14.0601C260.989 14.7699 262.839 15.371 264.72 15.8601C268.633 16.9032 272.617 17.6586 276.64 18.1201C278.672 18.3483 280.717 18.4318 282.76 18.3701C284.77 18.2874 286.773 18.0905 288.76 17.7801C292.346 17.255 295.848 16.2667 299.18 14.8401C301.32 13.9301 303.38 12.8401 305.45 11.8401C307.93 10.5801 310.37 9.2401 312.89 8.0701C313.4 7.9001 313.89 7.7701 314.42 7.6501C314.726 7.63009 315.034 7.63009 315.34 7.6501C316.064 7.79032 316.777 7.98761 317.47 8.2401C319.684 9.42846 321.816 10.7648 323.85 12.2401C326.023 13.705 328.28 15.0406 330.61 16.2401C332.942 17.4197 335.351 18.442 337.82 19.3001C340.607 20.234 343.513 20.766 346.45 20.8801C349.041 20.9783 351.633 20.7124 354.15 20.0901C356.294 19.5385 358.378 18.7748 360.37 17.8101C361.23 17.4101 362.09 17.0201 362.93 16.5701L364.55 15.6901C365.37 15.2601 366.22 14.8801 367.07 14.5201C371.198 12.9566 375.499 11.8956 379.88 11.3601C382.24 11.0601 384.62 10.9001 387 10.6701C389.05 10.4801 391.12 10.3801 393.18 10.2501C397.36 9.9701 401.56 9.7101 405.75 9.7201C406.53 9.7201 407.278 9.41035 407.829 8.85899C408.38 8.30764 408.69 7.55983 408.69 6.7801C408.69 6.00036 408.38 5.25256 407.829 4.7012C407.278 4.14985 406.53 3.8401 405.75 3.8401C402.57 3.8401 399.39 4.1301 396.22 4.3701L391.64 4.6701Z" fill="#21C9D3"/>
</g>
<defs>
<clipPath id="clip0_708_1465">
<rect width="408.72" height="32.51" fill="white"/>
</clipPath>
</defs>
</svg>
