<svg width="30" height="30" viewBox="0 0 31 30" fill="none" xmlns="http://www.w3.org/2000/svg">
<path fill-rule="evenodd" clip-rule="evenodd" d="M13.5307 5.16639C9.33286 2.73425 3.17 3.40925 2.40071 10.4164C1.62928 17.445 5.585 24.8828 7.70428 27.7307C8.18643 28.3778 8.96643 28.6885 9.77428 28.6885C11.0964 28.6885 12.2793 27.8592 12.7271 26.6121L13.4771 24.5314C13.6272 24.1155 13.9018 23.756 14.2636 23.5018C14.6254 23.2477 15.0568 23.1114 15.4989 23.1114C15.9411 23.1114 16.3724 23.2477 16.7343 23.5018C17.0961 23.756 17.3707 24.1155 17.5207 24.5314L18.2707 26.6121C18.7207 27.8592 19.9036 28.6885 21.2279 28.6885C22.0336 28.6885 22.8136 28.3778 23.2936 27.7307C25.415 24.8828 29.3729 17.445 28.5993 10.4164C27.83 3.40925 21.6671 2.73425 17.4671 5.16639C16.1493 5.93139 14.8529 5.93139 13.5307 5.16639ZM18.6093 8.8071C18.775 8.74452 18.9514 8.71542 19.1284 8.72149C19.3054 8.72755 19.4794 8.76865 19.6404 8.84242C19.8014 8.91619 19.9462 9.02116 20.0664 9.15125C20.1865 9.28134 20.2797 9.43398 20.3405 9.60032C20.4013 9.76666 20.4284 9.9434 20.4205 10.1203C20.4125 10.2972 20.3695 10.4708 20.294 10.631C20.2185 10.7912 20.112 10.9348 19.9806 11.0536C19.8492 11.1723 19.6956 11.2638 19.5286 11.3228C17.9964 11.88 16.7 12.2014 15.3843 12.1971C14.06 12.195 12.8343 11.865 11.435 11.31C11.2715 11.245 11.1224 11.1484 10.9962 11.0258C10.8701 10.9031 10.7693 10.7569 10.6996 10.5953C10.63 10.4337 10.5929 10.26 10.5903 10.0841C10.5878 9.90815 10.62 9.73346 10.685 9.56996C10.75 9.40647 10.8466 9.25737 10.9692 9.1312C11.0918 9.00502 11.2381 8.90424 11.3997 8.83459C11.5612 8.76495 11.735 8.72781 11.9109 8.7253C12.0868 8.72279 12.2615 8.75496 12.425 8.81996C13.6614 9.31282 14.5357 9.51639 15.3907 9.51853C16.2543 9.52067 17.21 9.3171 18.6093 8.8071Z" fill="white"/>
</svg>
