<svg width="67" height="59" viewBox="0 0 67 59" fill="none" xmlns="http://www.w3.org/2000/svg">
<path d="M57.0835 54.468C57.0835 56.6955 44.8914 58.5016 29.8533 58.5016C14.8152 58.5016 2.62311 56.6955 2.62311 54.468C2.62311 52.2405 14.8152 50.4343 29.8533 50.4343C44.8914 50.4343 57.0835 52.2405 57.0835 54.468Z" fill="#1EBDC1"/>
<path d="M53.0245 21.495C54.5932 21.5892 56.111 20.9961 57.4645 20.2566C58.7628 19.5484 60.0102 18.6311 61.0844 17.6123C62.1884 16.5635 63.1072 15.2892 63.8586 13.97C64.6325 12.612 65.2256 11.1136 65.3526 9.54645C65.4273 8.63215 64.005 8.63962 63.9318 9.54645C63.8258 10.8611 63.2655 12.116 62.6321 13.2529C61.9658 14.4466 61.1396 15.5551 60.1701 16.5202C59.2423 17.4435 58.1353 18.2218 57.0104 18.8821C55.8077 19.5888 54.4438 20.1595 53.0245 20.0758C52.1087 20.0205 52.1132 21.4413 53.0245 21.495Z" fill="#231F20"/>
<path d="M2.14656 32.719C2.08979 30.5169 2.02555 28.2715 2.54843 26.1143C3.08028 23.9211 4.36059 22.109 6.21458 20.8302C6.96305 20.3133 6.25343 19.0822 5.49749 19.6036C3.39998 21.0513 1.92247 23.0322 1.24123 25.4958C0.594348 27.8323 0.664564 30.3197 0.725816 32.719C0.748225 33.6333 2.16897 33.6363 2.14656 32.719Z" fill="#231F20"/>
<path d="M17.482 54.9073C13.9951 54.8102 10.9474 54.1424 9.05907 48.334C7.75934 44.3332 8.1881 39.6213 7.75186 36.5631C7.31563 33.5065 3.68534 24.1813 3.2506 16.6906C2.81437 9.19998 7.46204 1.40456 15.0125 0.945915C22.5629 0.487273 25.6135 3.08674 29.5336 3.23913C34.6205 3.43782 38.5182 0.327421 45.362 0.641151C52.0415 0.94741 55.3819 8.28419 55.6718 16.0811C55.9287 22.9697 51.7965 33.1181 51.8965 36.5646C52.0415 41.6097 51.7516 54.4502 46.0881 54.4502C39.5386 54.4502 38.1014 45.125 36.2131 43.2904C32.7501 39.926 29.8235 39.6213 26.7743 42.6794C23.2411 46.223 23.0006 55.0612 17.482 54.9073Z" fill="#DEECED"/>
<path d="M19.2448 4.6416C16.6095 3.95438 14.4179 4.7402 12.6252 6.23116C11.1088 7.09765 9.70149 8.67825 9.07404 9.78676C7.59054 12.4071 6.57765 15.9807 8.09251 18.8565C9.3534 21.2528 12.3652 21.2424 13.3303 18.6429C14.1818 16.3482 13.4169 13.8921 14.8974 11.7423C16.3137 9.68666 18.3305 9.68218 20.307 8.38095C22.4837 6.94826 21.2796 5.17195 19.2448 4.6416Z" fill="white"/>
<path d="M55.6672 16.0902C55.4028 9.00146 52.6286 2.28317 47.1039 0.893799C57.1821 5.02158 53.997 21.1801 49.2149 27.8566C47.8897 29.7076 45.852 30.0826 43.2959 31.8813C40.9354 33.5425 46.8007 33.6815 48.6472 39.0328C49.7482 42.2254 51.1077 50.1239 46.6109 51.4879C45.1364 51.9345 43.0957 52.0063 41.7332 51.3937C40.8607 51.0008 39.6491 49.973 38.9619 48.733C40.3976 51.5969 42.4578 54.4578 46.0851 54.4578C51.7486 54.4578 52.0384 41.6173 51.8935 36.5723C51.7919 33.1257 55.9242 22.9788 55.6672 16.0902Z" fill="#B9E1EA"/>
<path d="M19.9992 16.3487C19.9992 17.2645 19.2567 18.007 18.3409 18.007C17.4251 18.007 16.6841 17.2645 16.6841 16.3487C16.6841 15.4329 17.4266 14.6919 18.3409 14.6919C19.2582 14.6919 19.9992 15.4344 19.9992 16.3487Z" fill="#231F20"/>
<path d="M43.1107 16.3487C43.1107 17.2645 42.3682 18.007 41.4524 18.007C40.5366 18.007 39.7956 17.2645 39.7956 16.3487C39.7956 15.4329 40.5381 14.6919 41.4524 14.6919C42.3682 14.6919 43.1107 15.4344 43.1107 16.3487Z" fill="#231F20"/>
<path d="M30.784 29.3263C30.7228 29.3263 30.6615 29.3263 30.5988 29.3248C27.5989 29.2546 25.8704 27.8861 24.9502 26.7507C23.9522 25.5197 23.6698 24.3066 23.6579 24.2558C23.6056 24.0257 23.7505 23.7987 23.9791 23.7464C24.2092 23.6941 24.4362 23.8375 24.4885 24.0676C24.5289 24.2439 25.5403 28.3537 30.6182 28.4717C32.6634 28.518 33.9676 27.6725 34.7027 26.9554C35.8381 25.8454 36.2429 24.4919 36.2429 23.594C36.2429 23.3579 36.4341 23.1682 36.6687 23.1682C36.9032 23.1682 37.0945 23.3594 37.0945 23.594C37.0945 24.9595 36.4058 26.4818 35.2972 27.5649C34.4696 28.3761 33.019 29.3263 30.784 29.3263Z" fill="#231F20"/>
<path d="M43.0778 9.02196C42.1725 8.73961 40.4201 8.75455 39.6671 9.58817C39.3534 9.93477 39.4101 10.4382 40.0286 10.6056C40.7756 10.7998 41.055 10.238 42.8238 10.5279C43.4348 10.628 44.2087 10.9387 44.2894 10.0842C44.3566 9.35661 43.6455 9.19825 43.0778 9.02196Z" fill="#231F20"/>
<path d="M16.1882 9.03858C17.0891 8.74427 18.8415 8.73382 19.6064 9.55698C19.9246 9.8991 19.8753 10.4041 19.2583 10.5788C18.5143 10.782 18.2275 10.2248 16.4631 10.54C15.8536 10.6491 15.0842 10.9703 14.9916 10.1172C14.9139 9.39115 15.622 9.22383 16.1882 9.03858Z" fill="#231F20"/>
<path d="M65.1598 4.06655C63.2655 4.01874 63.2356 5.94743 63.5434 7.30991C63.2595 6.94837 62.8158 6.44491 62.3049 6.79599C61.8343 7.12018 62.2332 7.80889 62.4991 8.15698C63.1579 9.02347 63.7869 9.91685 63.6644 11.0776L63.5 13.223C64.2739 11.3481 65.844 10.0035 66.5402 8.10917C67.0452 6.74221 67.2648 4.12033 65.1598 4.06655Z" fill="#231F20"/>
<path d="M3.59863 37.8909C5.30771 37.0722 4.45616 35.3407 3.56278 34.2665C3.98108 34.4593 4.60556 34.7058 4.89837 34.1605C5.16877 33.657 4.50098 33.2268 4.10658 33.037C3.12505 32.5649 2.15847 32.0555 1.74016 30.9664L0.91102 28.981C1.07535 31.0023 0.288044 32.9145 0.52857 34.9179C0.701868 36.3641 1.70132 38.7992 3.59863 37.8909Z" fill="#231F20"/>
</svg>
